<svg xmlns="http://www.w3.org/2000/svg" xml:space="preserve" width="800" height="800" viewBox="0 0 512 512"><path fill-rule="evenodd" d="M511.446 65.792c0 36.032-29.199 65.244-65.271 65.244-36.025 0-65.229-29.211-65.229-65.244C380.946 29.709 410.15.5 446.175.5c36.072 0 65.271 29.209 65.271 65.292zM343.677 350.74l-18.431 2.794c-14.049 1.996-20.477 7.446-20.477 17.067 0 11.43 6.647 17.633 18.48 17.633 13.205 0 25.873-6.42 30.883-15.824 1.376-2.611 1.376-3.23 1.376-8.461v-5.006l.221-12.02v-.217c-.221 0-1.019.624-1.597 1.023-1.193 1.195-4.83 2.217-10.455 3.011zm102.498-62.09c0 123.078-99.754 222.85-222.809 222.85C100.303 511.5.553 411.729.553 288.65c0-123.09 99.75-222.858 222.813-222.858 123.055 0 222.809 99.769 222.809 222.858zm-282.151 93.958H90.999v-126.54H71.146v144.006h92.878v-17.466zm101.879-87.447H248.05v61.608c0 5.584-3.019 14.627-6.827 20.257-4.433 6.776-12.452 10.813-21.271 10.813-14.049 0-21.046-7.396-21.046-22.468v-70.21h-17.865v78.047c0 17.646 14.272 29.877 34.524 29.877 15.417 0 25.832-5.804 33.282-18.26v15.25h17.055V295.161zm119.521 91.884c-2.836.574-4.216.794-5.851.794-3.986 0-5.808-1.816-5.808-6.199v-59.974c0-18.48-14.843-29.523-39.706-29.523-27.253 0-41.518 11.662-42.499 34.933h16.447c1.992-14.277 9.209-20.261 24.057-20.261 16.219 0 24.284 5.983 24.284 17.646 0 10.814-1.417 11.608-30.313 14.622-9.837.803-13.025 1.422-18.027 3.019-13.649 4.428-21.674 15.646-21.674 30.094 0 19.232 13.255 30.891 35.099 30.891 13.43 0 22.639-4.432 35.715-16.847.573 10.644 6.203 15.824 16.843 15.824 3.982 0 6.024-.399 11.434-1.987v-13.032zm-4.479-190.722c0-36.037-29.244-65.288-65.274-65.288-36.026 0-65.271 29.251-65.271 65.288 0 36.034 29.245 65.285 65.271 65.285 36.03 0 65.274-29.251 65.274-65.285z" clip-rule="evenodd"/></svg>